<mxfile host="app.diagrams.net" agent="Mozilla/5.0 (Windows NT 10.0; Win64; x64) AppleWebKit/537.36 (KHTML, like Gecko) Chrome/131.0.0.0 Safari/537.36" version="25.0.3">
  <diagram name="第 1 页" id="kN2KPB9RIJx70werJEgm">
    <mxGraphModel dx="2931" dy="777" grid="1" gridSize="10" guides="1" tooltips="1" connect="1" arrows="1" fold="1" page="1" pageScale="1" pageWidth="1169" pageHeight="1654" math="0" shadow="0">
      <root>
        <mxCell id="0" />
        <mxCell id="1" parent="0" />
        <mxCell id="q0TdbtP4-X2V0STU8fqp-1" value="訂單 (Order)" style="swimlane;fontStyle=1;align=center;verticalAlign=top;childLayout=stackLayout;horizontal=1;startSize=26;horizontalStack=0;resizeParent=1;resizeParentMax=0;resizeLast=0;collapsible=1;marginBottom=0;whiteSpace=wrap;html=1;" parent="1" vertex="1">
          <mxGeometry x="-804" y="55" width="440" height="376" as="geometry">
            <mxRectangle x="200" y="140" width="160" height="40" as="alternateBounds" />
          </mxGeometry>
        </mxCell>
        <mxCell id="q0TdbtP4-X2V0STU8fqp-2" value="-&amp;nbsp;&lt;span style=&quot;font-family: sans-serif; font-size: 14px; text-wrap-mode: nowrap; background-color: rgb(255, 255, 255);&quot;&gt;order_id&lt;/span&gt;: int" style="text;strokeColor=none;fillColor=none;align=left;verticalAlign=top;spacingLeft=4;spacingRight=4;overflow=hidden;rotatable=0;points=[[0,0.5],[1,0.5]];portConstraint=eastwest;whiteSpace=wrap;html=1;" parent="q0TdbtP4-X2V0STU8fqp-1" vertex="1">
          <mxGeometry y="26" width="440" height="26" as="geometry" />
        </mxCell>
        <mxCell id="q0TdbtP4-X2V0STU8fqp-4" value="-&amp;nbsp;&lt;span style=&quot;font-family: sans-serif; font-size: 14px; text-wrap-mode: nowrap; background-color: rgb(255, 255, 255);&quot;&gt;order_amount&lt;/span&gt;: decimal" style="text;strokeColor=none;fillColor=none;align=left;verticalAlign=top;spacingLeft=4;spacingRight=4;overflow=hidden;rotatable=0;points=[[0,0.5],[1,0.5]];portConstraint=eastwest;whiteSpace=wrap;html=1;" parent="q0TdbtP4-X2V0STU8fqp-1" vertex="1">
          <mxGeometry y="52" width="440" height="26" as="geometry" />
        </mxCell>
        <mxCell id="q0TdbtP4-X2V0STU8fqp-6" value="-&amp;nbsp;&lt;span style=&quot;font-family: sans-serif; text-wrap-mode: nowrap; background-color: rgb(255, 255, 255);&quot;&gt;recipient_name&lt;/span&gt;: string" style="text;strokeColor=none;fillColor=none;align=left;verticalAlign=top;spacingLeft=4;spacingRight=4;overflow=hidden;rotatable=0;points=[[0,0.5],[1,0.5]];portConstraint=eastwest;whiteSpace=wrap;html=1;fontSize=12;" parent="q0TdbtP4-X2V0STU8fqp-1" vertex="1">
          <mxGeometry y="78" width="440" height="26" as="geometry" />
        </mxCell>
        <mxCell id="q0TdbtP4-X2V0STU8fqp-7" value="-&amp;nbsp;&lt;span style=&quot;font-family: sans-serif; text-wrap-mode: nowrap; background-color: rgb(255, 255, 255);&quot;&gt;&lt;font&gt;recipient_address&lt;/font&gt;&lt;/span&gt;: string" style="text;strokeColor=none;fillColor=none;align=left;verticalAlign=top;spacingLeft=4;spacingRight=4;overflow=hidden;rotatable=0;points=[[0,0.5],[1,0.5]];portConstraint=eastwest;whiteSpace=wrap;html=1;" parent="q0TdbtP4-X2V0STU8fqp-1" vertex="1">
          <mxGeometry y="104" width="440" height="26" as="geometry" />
        </mxCell>
        <mxCell id="q0TdbtP4-X2V0STU8fqp-8" value="-&amp;nbsp;&lt;span style=&quot;font-family: sans-serif; text-wrap-mode: nowrap; background-color: rgb(255, 255, 255);&quot;&gt;recipient_phone&lt;/span&gt;: string" style="text;strokeColor=none;fillColor=none;align=left;verticalAlign=top;spacingLeft=4;spacingRight=4;overflow=hidden;rotatable=0;points=[[0,0.5],[1,0.5]];portConstraint=eastwest;whiteSpace=wrap;html=1;fontSize=12;" parent="q0TdbtP4-X2V0STU8fqp-1" vertex="1">
          <mxGeometry y="130" width="440" height="26" as="geometry" />
        </mxCell>
        <mxCell id="q0TdbtP4-X2V0STU8fqp-9" value="-&amp;nbsp;&lt;span style=&quot;font-family: sans-serif; text-wrap-mode: nowrap; background-color: rgb(255, 255, 255);&quot;&gt;order_payment_method&lt;/span&gt;: &lt;font face=&quot;sans-serif&quot;&gt;&lt;span style=&quot;text-wrap-mode: nowrap;&quot;&gt;PaymentMethod&lt;/span&gt;&lt;/font&gt;" style="text;strokeColor=none;fillColor=none;align=left;verticalAlign=top;spacingLeft=4;spacingRight=4;overflow=hidden;rotatable=0;points=[[0,0.5],[1,0.5]];portConstraint=eastwest;whiteSpace=wrap;html=1;fontSize=12;" parent="q0TdbtP4-X2V0STU8fqp-1" vertex="1">
          <mxGeometry y="156" width="440" height="26" as="geometry" />
        </mxCell>
        <mxCell id="q0TdbtP4-X2V0STU8fqp-11" value="- payment_status: string" style="text;strokeColor=none;fillColor=none;align=left;verticalAlign=top;spacingLeft=4;spacingRight=4;overflow=hidden;rotatable=0;points=[[0,0.5],[1,0.5]];portConstraint=eastwest;whiteSpace=wrap;html=1;" parent="q0TdbtP4-X2V0STU8fqp-1" vertex="1">
          <mxGeometry y="182" width="440" height="26" as="geometry" />
        </mxCell>
        <mxCell id="q0TdbtP4-X2V0STU8fqp-12" value="- create_time: datetime" style="text;strokeColor=none;fillColor=none;align=left;verticalAlign=top;spacingLeft=4;spacingRight=4;overflow=hidden;rotatable=0;points=[[0,0.5],[1,0.5]];portConstraint=eastwest;whiteSpace=wrap;html=1;" parent="q0TdbtP4-X2V0STU8fqp-1" vertex="1">
          <mxGeometry y="208" width="440" height="26" as="geometry" />
        </mxCell>
        <mxCell id="q0TdbtP4-X2V0STU8fqp-13" value="" style="line;strokeWidth=1;fillColor=none;align=left;verticalAlign=middle;spacingTop=-1;spacingLeft=3;spacingRight=3;rotatable=0;labelPosition=right;points=[];portConstraint=eastwest;strokeColor=inherit;" parent="q0TdbtP4-X2V0STU8fqp-1" vertex="1">
          <mxGeometry y="234" width="440" height="8" as="geometry" />
        </mxCell>
        <mxCell id="q0TdbtP4-X2V0STU8fqp-14" value="+ add_order(order_amount: int): string" style="text;strokeColor=none;fillColor=none;align=left;verticalAlign=top;spacingLeft=4;spacingRight=4;overflow=hidden;rotatable=0;points=[[0,0.5],[1,0.5]];portConstraint=eastwest;whiteSpace=wrap;html=1;" parent="q0TdbtP4-X2V0STU8fqp-1" vertex="1">
          <mxGeometry y="242" width="440" height="26" as="geometry" />
        </mxCell>
        <mxCell id="zjpzzc-AScPTp0sYewrL-1" value="+ update_order_payment_method(order_id: int, payment_method: PaymentMethod): string" style="text;strokeColor=none;fillColor=none;align=left;verticalAlign=top;spacingLeft=4;spacingRight=4;overflow=hidden;rotatable=0;points=[[0,0.5],[1,0.5]];portConstraint=eastwest;whiteSpace=wrap;html=1;" vertex="1" parent="q0TdbtP4-X2V0STU8fqp-1">
          <mxGeometry y="268" width="440" height="42" as="geometry" />
        </mxCell>
        <mxCell id="4t4U_nMPSx-wu9e17vIo-2" value="+&amp;nbsp;set_recipient_info(order_id: int, recipient_name: string, recipient_address: string, recipient_phone: string): string" style="text;strokeColor=none;fillColor=none;align=left;verticalAlign=top;spacingLeft=4;spacingRight=4;overflow=hidden;rotatable=0;points=[[0,0.5],[1,0.5]];portConstraint=eastwest;whiteSpace=wrap;html=1;" parent="q0TdbtP4-X2V0STU8fqp-1" vertex="1">
          <mxGeometry y="310" width="440" height="40" as="geometry" />
        </mxCell>
        <mxCell id="4t4U_nMPSx-wu9e17vIo-1" value="+ update_payment_status(order_id: int, status: string): string" style="text;strokeColor=none;fillColor=none;align=left;verticalAlign=top;spacingLeft=4;spacingRight=4;overflow=hidden;rotatable=0;points=[[0,0.5],[1,0.5]];portConstraint=eastwest;whiteSpace=wrap;html=1;" parent="q0TdbtP4-X2V0STU8fqp-1" vertex="1">
          <mxGeometry y="350" width="440" height="26" as="geometry" />
        </mxCell>
        <mxCell id="q0TdbtP4-X2V0STU8fqp-16" value="1" style="edgeLabel;resizable=0;html=1;align=left;verticalAlign=bottom;" parent="1" connectable="0" vertex="1">
          <mxGeometry x="1841" y="246" as="geometry" />
        </mxCell>
        <mxCell id="q0TdbtP4-X2V0STU8fqp-17" value="付款方式 (PaymentMethod)" style="swimlane;fontStyle=1;align=center;verticalAlign=top;childLayout=stackLayout;horizontal=1;startSize=26;horizontalStack=0;resizeParent=1;resizeParentMax=0;resizeLast=0;collapsible=1;marginBottom=0;whiteSpace=wrap;html=1;" parent="1" vertex="1">
          <mxGeometry x="-798" y="1029" width="427" height="112" as="geometry">
            <mxRectangle x="200" y="140" width="160" height="40" as="alternateBounds" />
          </mxGeometry>
        </mxCell>
        <mxCell id="q0TdbtP4-X2V0STU8fqp-18" value="- payment_name: string" style="text;strokeColor=none;fillColor=none;align=left;verticalAlign=top;spacingLeft=4;spacingRight=4;overflow=hidden;rotatable=0;points=[[0,0.5],[1,0.5]];portConstraint=eastwest;whiteSpace=wrap;html=1;" parent="q0TdbtP4-X2V0STU8fqp-17" vertex="1">
          <mxGeometry y="26" width="427" height="26" as="geometry" />
        </mxCell>
        <mxCell id="q0TdbtP4-X2V0STU8fqp-22" value="" style="line;strokeWidth=1;fillColor=none;align=left;verticalAlign=middle;spacingTop=-1;spacingLeft=3;spacingRight=3;rotatable=0;labelPosition=right;points=[];portConstraint=eastwest;strokeColor=inherit;" parent="q0TdbtP4-X2V0STU8fqp-17" vertex="1">
          <mxGeometry y="52" width="427" height="8" as="geometry" />
        </mxCell>
        <mxCell id="zjpzzc-AScPTp0sYewrL-2" value="+ __init__(payment_name: string)" style="text;strokeColor=none;fillColor=none;align=left;verticalAlign=top;spacingLeft=4;spacingRight=4;overflow=hidden;rotatable=0;points=[[0,0.5],[1,0.5]];portConstraint=eastwest;whiteSpace=wrap;html=1;" vertex="1" parent="q0TdbtP4-X2V0STU8fqp-17">
          <mxGeometry y="60" width="427" height="26" as="geometry" />
        </mxCell>
        <mxCell id="q0TdbtP4-X2V0STU8fqp-25" value="+ pay(parameters: IPaymentParameters): bool" style="text;strokeColor=none;fillColor=none;align=left;verticalAlign=top;spacingLeft=4;spacingRight=4;overflow=hidden;rotatable=0;points=[[0,0.5],[1,0.5]];portConstraint=eastwest;whiteSpace=wrap;html=1;" parent="q0TdbtP4-X2V0STU8fqp-17" vertex="1">
          <mxGeometry y="86" width="427" height="26" as="geometry" />
        </mxCell>
        <mxCell id="q0TdbtP4-X2V0STU8fqp-29" value="多元行動支付 (MobilePayment)" style="swimlane;fontStyle=1;align=center;verticalAlign=top;childLayout=stackLayout;horizontal=1;startSize=26;horizontalStack=0;resizeParent=1;resizeParentMax=0;resizeLast=0;collapsible=1;marginBottom=0;whiteSpace=wrap;html=1;" parent="1" vertex="1">
          <mxGeometry x="-370" y="1195" width="260" height="140" as="geometry">
            <mxRectangle x="200" y="140" width="160" height="40" as="alternateBounds" />
          </mxGeometry>
        </mxCell>
        <mxCell id="q0TdbtP4-X2V0STU8fqp-30" value="- mobile_payment_name: string" style="text;strokeColor=none;fillColor=none;align=left;verticalAlign=top;spacingLeft=4;spacingRight=4;overflow=hidden;rotatable=0;points=[[0,0.5],[1,0.5]];portConstraint=eastwest;whiteSpace=wrap;html=1;" parent="q0TdbtP4-X2V0STU8fqp-29" vertex="1">
          <mxGeometry y="26" width="260" height="26" as="geometry" />
        </mxCell>
        <mxCell id="q0TdbtP4-X2V0STU8fqp-32" value="" style="line;strokeWidth=1;fillColor=none;align=left;verticalAlign=middle;spacingTop=-1;spacingLeft=3;spacingRight=3;rotatable=0;labelPosition=right;points=[];portConstraint=eastwest;strokeColor=inherit;" parent="q0TdbtP4-X2V0STU8fqp-29" vertex="1">
          <mxGeometry y="52" width="260" height="8" as="geometry" />
        </mxCell>
        <mxCell id="q0TdbtP4-X2V0STU8fqp-33" value="+ pay(parameters: MobilePaymentParameters, order_instance: Order): bool" style="text;strokeColor=none;fillColor=none;align=left;verticalAlign=top;spacingLeft=4;spacingRight=4;overflow=hidden;rotatable=0;points=[[0,0.5],[1,0.5]];portConstraint=eastwest;whiteSpace=wrap;html=1;" parent="q0TdbtP4-X2V0STU8fqp-29" vertex="1">
          <mxGeometry y="60" width="260" height="40" as="geometry" />
        </mxCell>
        <mxCell id="zjpzzc-AScPTp0sYewrL-7" value="+ set_mobile_payment_type(mobile_payment: IMobilePay): string" style="text;strokeColor=none;fillColor=none;align=left;verticalAlign=top;spacingLeft=4;spacingRight=4;overflow=hidden;rotatable=0;points=[[0,0.5],[1,0.5]];portConstraint=eastwest;whiteSpace=wrap;html=1;" vertex="1" parent="q0TdbtP4-X2V0STU8fqp-29">
          <mxGeometry y="100" width="260" height="40" as="geometry" />
        </mxCell>
        <mxCell id="q0TdbtP4-X2V0STU8fqp-34" value="" style="endArrow=block;endSize=16;endFill=0;html=1;rounded=0;exitX=0.5;exitY=0;exitDx=0;exitDy=0;" parent="1" source="q0TdbtP4-X2V0STU8fqp-29" target="q0TdbtP4-X2V0STU8fqp-17" edge="1">
          <mxGeometry width="160" relative="1" as="geometry">
            <mxPoint x="-739" y="919" as="sourcePoint" />
            <mxPoint x="-359" y="1059" as="targetPoint" />
          </mxGeometry>
        </mxCell>
        <mxCell id="q0TdbtP4-X2V0STU8fqp-35" value="信用卡支付 (CreditCardPayment)" style="swimlane;fontStyle=1;align=center;verticalAlign=top;childLayout=stackLayout;horizontal=1;startSize=26;horizontalStack=0;resizeParent=1;resizeParentMax=0;resizeLast=0;collapsible=1;marginBottom=0;whiteSpace=wrap;html=1;" parent="1" vertex="1">
          <mxGeometry x="-649" y="1341" width="289" height="100" as="geometry">
            <mxRectangle x="200" y="140" width="160" height="40" as="alternateBounds" />
          </mxGeometry>
        </mxCell>
        <mxCell id="q0TdbtP4-X2V0STU8fqp-36" value="- last_four_digits: string" style="text;strokeColor=none;fillColor=none;align=left;verticalAlign=top;spacingLeft=4;spacingRight=4;overflow=hidden;rotatable=0;points=[[0,0.5],[1,0.5]];portConstraint=eastwest;whiteSpace=wrap;html=1;" parent="q0TdbtP4-X2V0STU8fqp-35" vertex="1">
          <mxGeometry y="26" width="289" height="26" as="geometry" />
        </mxCell>
        <mxCell id="q0TdbtP4-X2V0STU8fqp-37" value="" style="line;strokeWidth=1;fillColor=none;align=left;verticalAlign=middle;spacingTop=-1;spacingLeft=3;spacingRight=3;rotatable=0;labelPosition=right;points=[];portConstraint=eastwest;strokeColor=inherit;" parent="q0TdbtP4-X2V0STU8fqp-35" vertex="1">
          <mxGeometry y="52" width="289" height="8" as="geometry" />
        </mxCell>
        <mxCell id="q0TdbtP4-X2V0STU8fqp-38" value="+ pay(parameters: CreditCardPaymentParameters, order_instance: Order): bool" style="text;strokeColor=none;fillColor=none;align=left;verticalAlign=top;spacingLeft=4;spacingRight=4;overflow=hidden;rotatable=0;points=[[0,0.5],[1,0.5]];portConstraint=eastwest;whiteSpace=wrap;html=1;" parent="q0TdbtP4-X2V0STU8fqp-35" vertex="1">
          <mxGeometry y="60" width="289" height="40" as="geometry" />
        </mxCell>
        <mxCell id="q0TdbtP4-X2V0STU8fqp-39" value="" style="endArrow=block;endSize=16;endFill=0;html=1;rounded=0;exitX=0.5;exitY=0;exitDx=0;exitDy=0;" parent="1" source="q0TdbtP4-X2V0STU8fqp-35" target="q0TdbtP4-X2V0STU8fqp-17" edge="1">
          <mxGeometry width="160" relative="1" as="geometry">
            <mxPoint x="-205" y="1349" as="sourcePoint" />
            <mxPoint x="-465" y="1179" as="targetPoint" />
          </mxGeometry>
        </mxCell>
        <mxCell id="q0TdbtP4-X2V0STU8fqp-40" value="匯款支付 (RemittancePayment)" style="swimlane;fontStyle=1;align=center;verticalAlign=top;childLayout=stackLayout;horizontal=1;startSize=26;horizontalStack=0;resizeParent=1;resizeParentMax=0;resizeLast=0;collapsible=1;marginBottom=0;whiteSpace=wrap;html=1;" parent="1" vertex="1">
          <mxGeometry x="-970" y="1341" width="310" height="226" as="geometry">
            <mxRectangle x="200" y="140" width="160" height="40" as="alternateBounds" />
          </mxGeometry>
        </mxCell>
        <mxCell id="q0TdbtP4-X2V0STU8fqp-41" value="- receiving_bank: string" style="text;strokeColor=none;fillColor=none;align=left;verticalAlign=top;spacingLeft=4;spacingRight=4;overflow=hidden;rotatable=0;points=[[0,0.5],[1,0.5]];portConstraint=eastwest;whiteSpace=wrap;html=1;" parent="q0TdbtP4-X2V0STU8fqp-40" vertex="1">
          <mxGeometry y="26" width="310" height="26" as="geometry" />
        </mxCell>
        <mxCell id="q0TdbtP4-X2V0STU8fqp-42" value="- receiving_account_number: string" style="text;strokeColor=none;fillColor=none;align=left;verticalAlign=top;spacingLeft=4;spacingRight=4;overflow=hidden;rotatable=0;points=[[0,0.5],[1,0.5]];portConstraint=eastwest;whiteSpace=wrap;html=1;" parent="q0TdbtP4-X2V0STU8fqp-40" vertex="1">
          <mxGeometry y="52" width="310" height="26" as="geometry" />
        </mxCell>
        <mxCell id="q0TdbtP4-X2V0STU8fqp-43" value="- remitter: string" style="text;strokeColor=none;fillColor=none;align=left;verticalAlign=top;spacingLeft=4;spacingRight=4;overflow=hidden;rotatable=0;points=[[0,0.5],[1,0.5]];portConstraint=eastwest;whiteSpace=wrap;html=1;" parent="q0TdbtP4-X2V0STU8fqp-40" vertex="1">
          <mxGeometry y="78" width="310" height="26" as="geometry" />
        </mxCell>
        <mxCell id="q0TdbtP4-X2V0STU8fqp-44" value="- last_five_digits: string" style="text;strokeColor=none;fillColor=none;align=left;verticalAlign=top;spacingLeft=4;spacingRight=4;overflow=hidden;rotatable=0;points=[[0,0.5],[1,0.5]];portConstraint=eastwest;whiteSpace=wrap;html=1;" parent="q0TdbtP4-X2V0STU8fqp-40" vertex="1">
          <mxGeometry y="104" width="310" height="26" as="geometry" />
        </mxCell>
        <mxCell id="q0TdbtP4-X2V0STU8fqp-45" value="- remitter_contact_info: string" style="text;strokeColor=none;fillColor=none;align=left;verticalAlign=top;spacingLeft=4;spacingRight=4;overflow=hidden;rotatable=0;points=[[0,0.5],[1,0.5]];portConstraint=eastwest;whiteSpace=wrap;html=1;" parent="q0TdbtP4-X2V0STU8fqp-40" vertex="1">
          <mxGeometry y="130" width="310" height="26" as="geometry" />
        </mxCell>
        <mxCell id="q0TdbtP4-X2V0STU8fqp-46" value="" style="line;strokeWidth=1;fillColor=none;align=left;verticalAlign=middle;spacingTop=-1;spacingLeft=3;spacingRight=3;rotatable=0;labelPosition=right;points=[];portConstraint=eastwest;strokeColor=inherit;" parent="q0TdbtP4-X2V0STU8fqp-40" vertex="1">
          <mxGeometry y="156" width="310" height="8" as="geometry" />
        </mxCell>
        <mxCell id="q0TdbtP4-X2V0STU8fqp-47" value="+ pay(parameters: RemittancePaymentParameters, order_instance: Order): bool" style="text;strokeColor=none;fillColor=none;align=left;verticalAlign=top;spacingLeft=4;spacingRight=4;overflow=hidden;rotatable=0;points=[[0,0.5],[1,0.5]];portConstraint=eastwest;whiteSpace=wrap;html=1;" parent="q0TdbtP4-X2V0STU8fqp-40" vertex="1">
          <mxGeometry y="164" width="310" height="36" as="geometry" />
        </mxCell>
        <mxCell id="zjpzzc-AScPTp0sYewrL-6" value="+ get_receiving_data(): string" style="text;strokeColor=none;fillColor=none;align=left;verticalAlign=top;spacingLeft=4;spacingRight=4;overflow=hidden;rotatable=0;points=[[0,0.5],[1,0.5]];portConstraint=eastwest;whiteSpace=wrap;html=1;" vertex="1" parent="q0TdbtP4-X2V0STU8fqp-40">
          <mxGeometry y="200" width="310" height="26" as="geometry" />
        </mxCell>
        <mxCell id="q0TdbtP4-X2V0STU8fqp-48" value="" style="endArrow=block;endSize=16;endFill=0;html=1;rounded=0;exitX=0.5;exitY=0;exitDx=0;exitDy=0;" parent="1" source="q0TdbtP4-X2V0STU8fqp-40" target="q0TdbtP4-X2V0STU8fqp-17" edge="1">
          <mxGeometry width="160" relative="1" as="geometry">
            <mxPoint x="-585" y="1339" as="sourcePoint" />
            <mxPoint x="-471" y="1177" as="targetPoint" />
          </mxGeometry>
        </mxCell>
        <mxCell id="4t4U_nMPSx-wu9e17vIo-3" value="貨到付款 (CashOnDelivery)" style="swimlane;fontStyle=1;align=center;verticalAlign=top;childLayout=stackLayout;horizontal=1;startSize=26;horizontalStack=0;resizeParent=1;resizeParentMax=0;resizeLast=0;collapsible=1;marginBottom=0;whiteSpace=wrap;html=1;" parent="1" vertex="1">
          <mxGeometry x="-1119" y="1195" width="300" height="70" as="geometry">
            <mxRectangle x="200" y="140" width="160" height="40" as="alternateBounds" />
          </mxGeometry>
        </mxCell>
        <mxCell id="4t4U_nMPSx-wu9e17vIo-5" value="" style="line;strokeWidth=1;fillColor=none;align=left;verticalAlign=middle;spacingTop=-1;spacingLeft=3;spacingRight=3;rotatable=0;labelPosition=right;points=[];portConstraint=eastwest;strokeColor=inherit;" parent="4t4U_nMPSx-wu9e17vIo-3" vertex="1">
          <mxGeometry y="26" width="300" height="8" as="geometry" />
        </mxCell>
        <mxCell id="4t4U_nMPSx-wu9e17vIo-6" value="+ pay(parameters: CashOnDeliveryParameters, order_instance: Order): bool" style="text;strokeColor=none;fillColor=none;align=left;verticalAlign=top;spacingLeft=4;spacingRight=4;overflow=hidden;rotatable=0;points=[[0,0.5],[1,0.5]];portConstraint=eastwest;whiteSpace=wrap;html=1;" parent="4t4U_nMPSx-wu9e17vIo-3" vertex="1">
          <mxGeometry y="34" width="300" height="36" as="geometry" />
        </mxCell>
        <mxCell id="4t4U_nMPSx-wu9e17vIo-7" value="" style="endArrow=block;endSize=16;endFill=0;html=1;rounded=0;exitX=0.44;exitY=-0.017;exitDx=0;exitDy=0;exitPerimeter=0;" parent="1" source="4t4U_nMPSx-wu9e17vIo-3" target="q0TdbtP4-X2V0STU8fqp-17" edge="1">
          <mxGeometry width="160" relative="1" as="geometry">
            <mxPoint x="-864" y="1349" as="sourcePoint" />
            <mxPoint x="-574" y="1049" as="targetPoint" />
          </mxGeometry>
        </mxCell>
        <mxCell id="4t4U_nMPSx-wu9e17vIo-8" value="行動支付 (IMobilePay)" style="swimlane;fontStyle=1;align=center;verticalAlign=top;childLayout=stackLayout;horizontal=1;startSize=26;horizontalStack=0;resizeParent=1;resizeParentMax=0;resizeLast=0;collapsible=1;marginBottom=0;whiteSpace=wrap;html=1;" parent="1" vertex="1">
          <mxGeometry x="-339" y="1351" width="229" height="132" as="geometry">
            <mxRectangle x="200" y="140" width="160" height="40" as="alternateBounds" />
          </mxGeometry>
        </mxCell>
        <mxCell id="4t4U_nMPSx-wu9e17vIo-9" value="- mobile_payment_name: string" style="text;strokeColor=none;fillColor=none;align=left;verticalAlign=top;spacingLeft=4;spacingRight=4;overflow=hidden;rotatable=0;points=[[0,0.5],[1,0.5]];portConstraint=eastwest;whiteSpace=wrap;html=1;" parent="4t4U_nMPSx-wu9e17vIo-8" vertex="1">
          <mxGeometry y="26" width="229" height="26" as="geometry" />
        </mxCell>
        <mxCell id="4t4U_nMPSx-wu9e17vIo-10" value="" style="line;strokeWidth=1;fillColor=none;align=left;verticalAlign=middle;spacingTop=-1;spacingLeft=3;spacingRight=3;rotatable=0;labelPosition=right;points=[];portConstraint=eastwest;strokeColor=inherit;" parent="4t4U_nMPSx-wu9e17vIo-8" vertex="1">
          <mxGeometry y="52" width="229" height="8" as="geometry" />
        </mxCell>
        <mxCell id="zjpzzc-AScPTp0sYewrL-3" value="+__init__(mobile_payment_name: string)" style="text;strokeColor=none;fillColor=none;align=left;verticalAlign=top;spacingLeft=4;spacingRight=4;overflow=hidden;rotatable=0;points=[[0,0.5],[1,0.5]];portConstraint=eastwest;whiteSpace=wrap;html=1;" vertex="1" parent="4t4U_nMPSx-wu9e17vIo-8">
          <mxGeometry y="60" width="229" height="20" as="geometry" />
        </mxCell>
        <mxCell id="zjpzzc-AScPTp0sYewrL-4" value="+ generate_payment_qrcode(): string" style="text;strokeColor=none;fillColor=none;align=left;verticalAlign=top;spacingLeft=4;spacingRight=4;overflow=hidden;rotatable=0;points=[[0,0.5],[1,0.5]];portConstraint=eastwest;whiteSpace=wrap;html=1;" vertex="1" parent="4t4U_nMPSx-wu9e17vIo-8">
          <mxGeometry y="80" width="229" height="26" as="geometry" />
        </mxCell>
        <mxCell id="4t4U_nMPSx-wu9e17vIo-11" value="+ pay(): bool" style="text;strokeColor=none;fillColor=none;align=left;verticalAlign=top;spacingLeft=4;spacingRight=4;overflow=hidden;rotatable=0;points=[[0,0.5],[1,0.5]];portConstraint=eastwest;whiteSpace=wrap;html=1;" parent="4t4U_nMPSx-wu9e17vIo-8" vertex="1">
          <mxGeometry y="106" width="229" height="26" as="geometry" />
        </mxCell>
        <mxCell id="4t4U_nMPSx-wu9e17vIo-12" value="LinePay支付 (LinePay)" style="swimlane;fontStyle=1;align=center;verticalAlign=top;childLayout=stackLayout;horizontal=1;startSize=26;horizontalStack=0;resizeParent=1;resizeParentMax=0;resizeLast=0;collapsible=1;marginBottom=0;whiteSpace=wrap;html=1;" parent="1" vertex="1">
          <mxGeometry x="-460" y="1540" width="220" height="86" as="geometry">
            <mxRectangle x="200" y="140" width="160" height="40" as="alternateBounds" />
          </mxGeometry>
        </mxCell>
        <mxCell id="4t4U_nMPSx-wu9e17vIo-14" value="" style="line;strokeWidth=1;fillColor=none;align=left;verticalAlign=middle;spacingTop=-1;spacingLeft=3;spacingRight=3;rotatable=0;labelPosition=right;points=[];portConstraint=eastwest;strokeColor=inherit;" parent="4t4U_nMPSx-wu9e17vIo-12" vertex="1">
          <mxGeometry y="26" width="220" height="8" as="geometry" />
        </mxCell>
        <mxCell id="zjpzzc-AScPTp0sYewrL-8" value="+ generate_payment_qrcode(): string" style="text;strokeColor=none;fillColor=none;align=left;verticalAlign=top;spacingLeft=4;spacingRight=4;overflow=hidden;rotatable=0;points=[[0,0.5],[1,0.5]];portConstraint=eastwest;whiteSpace=wrap;html=1;" vertex="1" parent="4t4U_nMPSx-wu9e17vIo-12">
          <mxGeometry y="34" width="220" height="26" as="geometry" />
        </mxCell>
        <mxCell id="4t4U_nMPSx-wu9e17vIo-15" value="+ pay(): bool" style="text;strokeColor=none;fillColor=none;align=left;verticalAlign=top;spacingLeft=4;spacingRight=4;overflow=hidden;rotatable=0;points=[[0,0.5],[1,0.5]];portConstraint=eastwest;whiteSpace=wrap;html=1;" parent="4t4U_nMPSx-wu9e17vIo-12" vertex="1">
          <mxGeometry y="60" width="220" height="26" as="geometry" />
        </mxCell>
        <mxCell id="4t4U_nMPSx-wu9e17vIo-16" value="" style="endArrow=block;endSize=16;endFill=0;html=1;rounded=0;" parent="1" source="4t4U_nMPSx-wu9e17vIo-12" target="4t4U_nMPSx-wu9e17vIo-8" edge="1">
          <mxGeometry width="160" relative="1" as="geometry">
            <mxPoint x="-151" y="1900" as="sourcePoint" />
            <mxPoint x="559" y="1599" as="targetPoint" />
          </mxGeometry>
        </mxCell>
        <mxCell id="4t4U_nMPSx-wu9e17vIo-17" value="街口支付 (JkoPay)" style="swimlane;fontStyle=1;align=center;verticalAlign=top;childLayout=stackLayout;horizontal=1;startSize=26;horizontalStack=0;resizeParent=1;resizeParentMax=0;resizeLast=0;collapsible=1;marginBottom=0;whiteSpace=wrap;html=1;" parent="1" vertex="1">
          <mxGeometry x="-230" y="1540" width="220" height="86" as="geometry">
            <mxRectangle x="200" y="140" width="160" height="40" as="alternateBounds" />
          </mxGeometry>
        </mxCell>
        <mxCell id="4t4U_nMPSx-wu9e17vIo-18" value="" style="line;strokeWidth=1;fillColor=none;align=left;verticalAlign=middle;spacingTop=-1;spacingLeft=3;spacingRight=3;rotatable=0;labelPosition=right;points=[];portConstraint=eastwest;strokeColor=inherit;" parent="4t4U_nMPSx-wu9e17vIo-17" vertex="1">
          <mxGeometry y="26" width="220" height="8" as="geometry" />
        </mxCell>
        <mxCell id="zjpzzc-AScPTp0sYewrL-9" value="+ generate_payment_qrcode(): string" style="text;strokeColor=none;fillColor=none;align=left;verticalAlign=top;spacingLeft=4;spacingRight=4;overflow=hidden;rotatable=0;points=[[0,0.5],[1,0.5]];portConstraint=eastwest;whiteSpace=wrap;html=1;" vertex="1" parent="4t4U_nMPSx-wu9e17vIo-17">
          <mxGeometry y="34" width="220" height="26" as="geometry" />
        </mxCell>
        <mxCell id="4t4U_nMPSx-wu9e17vIo-19" value="+ pay(): bool" style="text;strokeColor=none;fillColor=none;align=left;verticalAlign=top;spacingLeft=4;spacingRight=4;overflow=hidden;rotatable=0;points=[[0,0.5],[1,0.5]];portConstraint=eastwest;whiteSpace=wrap;html=1;" parent="4t4U_nMPSx-wu9e17vIo-17" vertex="1">
          <mxGeometry y="60" width="220" height="26" as="geometry" />
        </mxCell>
        <mxCell id="4t4U_nMPSx-wu9e17vIo-20" value="" style="endArrow=block;endSize=16;endFill=0;html=1;rounded=0;" parent="1" source="4t4U_nMPSx-wu9e17vIo-17" target="4t4U_nMPSx-wu9e17vIo-8" edge="1">
          <mxGeometry width="160" relative="1" as="geometry">
            <mxPoint x="-227" y="1481" as="sourcePoint" />
            <mxPoint x="-136" y="1397" as="targetPoint" />
          </mxGeometry>
        </mxCell>
        <mxCell id="4t4U_nMPSx-wu9e17vIo-21" value="支付通用參數 (IPaymentParameters)" style="swimlane;fontStyle=1;align=center;verticalAlign=top;childLayout=stackLayout;horizontal=1;startSize=26;horizontalStack=0;resizeParent=1;resizeParentMax=0;resizeLast=0;collapsible=1;marginBottom=0;whiteSpace=wrap;html=1;" parent="1" vertex="1">
          <mxGeometry x="-694" y="510" width="220" height="34" as="geometry">
            <mxRectangle x="200" y="140" width="160" height="40" as="alternateBounds" />
          </mxGeometry>
        </mxCell>
        <mxCell id="4t4U_nMPSx-wu9e17vIo-23" value="" style="line;strokeWidth=1;fillColor=none;align=left;verticalAlign=middle;spacingTop=-1;spacingLeft=3;spacingRight=3;rotatable=0;labelPosition=right;points=[];portConstraint=eastwest;strokeColor=inherit;" parent="4t4U_nMPSx-wu9e17vIo-21" vertex="1">
          <mxGeometry y="26" width="220" height="8" as="geometry" />
        </mxCell>
        <mxCell id="4t4U_nMPSx-wu9e17vIo-25" value="貨到付款參數 (CashOnDeliveryParameters)" style="swimlane;fontStyle=1;align=center;verticalAlign=top;childLayout=stackLayout;horizontal=1;startSize=26;horizontalStack=0;resizeParent=1;resizeParentMax=0;resizeLast=0;collapsible=1;marginBottom=0;whiteSpace=wrap;html=1;" parent="1" vertex="1">
          <mxGeometry x="-1044" y="700" width="260" height="60" as="geometry">
            <mxRectangle x="200" y="140" width="160" height="40" as="alternateBounds" />
          </mxGeometry>
        </mxCell>
        <mxCell id="4t4U_nMPSx-wu9e17vIo-26" value="" style="line;strokeWidth=1;fillColor=none;align=left;verticalAlign=middle;spacingTop=-1;spacingLeft=3;spacingRight=3;rotatable=0;labelPosition=right;points=[];portConstraint=eastwest;strokeColor=inherit;" parent="4t4U_nMPSx-wu9e17vIo-25" vertex="1">
          <mxGeometry y="26" width="260" height="8" as="geometry" />
        </mxCell>
        <mxCell id="zjpzzc-AScPTp0sYewrL-5" value="+ __init__(order_id: int)" style="text;strokeColor=none;fillColor=none;align=left;verticalAlign=top;spacingLeft=4;spacingRight=4;overflow=hidden;rotatable=0;points=[[0,0.5],[1,0.5]];portConstraint=eastwest;whiteSpace=wrap;html=1;" vertex="1" parent="4t4U_nMPSx-wu9e17vIo-25">
          <mxGeometry y="34" width="260" height="26" as="geometry" />
        </mxCell>
        <mxCell id="4t4U_nMPSx-wu9e17vIo-29" value="" style="endArrow=block;endSize=16;endFill=0;html=1;rounded=0;" parent="1" source="4t4U_nMPSx-wu9e17vIo-25" target="4t4U_nMPSx-wu9e17vIo-21" edge="1">
          <mxGeometry width="160" relative="1" as="geometry">
            <mxPoint x="168" y="900" as="sourcePoint" />
            <mxPoint x="259" y="816" as="targetPoint" />
          </mxGeometry>
        </mxCell>
        <mxCell id="4t4U_nMPSx-wu9e17vIo-32" value="信用卡支付參數 (CreditCardPaymentParameters)" style="swimlane;fontStyle=1;align=center;verticalAlign=top;childLayout=stackLayout;horizontal=1;startSize=26;horizontalStack=0;resizeParent=1;resizeParentMax=0;resizeLast=0;collapsible=1;marginBottom=0;whiteSpace=wrap;html=1;" parent="1" vertex="1">
          <mxGeometry x="-600" y="776" width="354" height="180" as="geometry">
            <mxRectangle x="200" y="140" width="160" height="40" as="alternateBounds" />
          </mxGeometry>
        </mxCell>
        <mxCell id="4t4U_nMPSx-wu9e17vIo-33" value="- card_number: string" style="text;strokeColor=none;fillColor=none;align=left;verticalAlign=top;spacingLeft=4;spacingRight=4;overflow=hidden;rotatable=0;points=[[0,0.5],[1,0.5]];portConstraint=eastwest;whiteSpace=wrap;html=1;" parent="4t4U_nMPSx-wu9e17vIo-32" vertex="1">
          <mxGeometry y="26" width="354" height="26" as="geometry" />
        </mxCell>
        <mxCell id="4t4U_nMPSx-wu9e17vIo-40" value="- expiry_year: int" style="text;strokeColor=none;fillColor=none;align=left;verticalAlign=top;spacingLeft=4;spacingRight=4;overflow=hidden;rotatable=0;points=[[0,0.5],[1,0.5]];portConstraint=eastwest;whiteSpace=wrap;html=1;" parent="4t4U_nMPSx-wu9e17vIo-32" vertex="1">
          <mxGeometry y="52" width="354" height="26" as="geometry" />
        </mxCell>
        <mxCell id="4t4U_nMPSx-wu9e17vIo-41" value="- expiry_month: int" style="text;strokeColor=none;fillColor=none;align=left;verticalAlign=top;spacingLeft=4;spacingRight=4;overflow=hidden;rotatable=0;points=[[0,0.5],[1,0.5]];portConstraint=eastwest;whiteSpace=wrap;html=1;" parent="4t4U_nMPSx-wu9e17vIo-32" vertex="1">
          <mxGeometry y="78" width="354" height="26" as="geometry" />
        </mxCell>
        <mxCell id="4t4U_nMPSx-wu9e17vIo-42" value="- security_code: string" style="text;strokeColor=none;fillColor=none;align=left;verticalAlign=top;spacingLeft=4;spacingRight=4;overflow=hidden;rotatable=0;points=[[0,0.5],[1,0.5]];portConstraint=eastwest;whiteSpace=wrap;html=1;" parent="4t4U_nMPSx-wu9e17vIo-32" vertex="1">
          <mxGeometry y="104" width="354" height="26" as="geometry" />
        </mxCell>
        <mxCell id="4t4U_nMPSx-wu9e17vIo-34" value="" style="line;strokeWidth=1;fillColor=none;align=left;verticalAlign=middle;spacingTop=-1;spacingLeft=3;spacingRight=3;rotatable=0;labelPosition=right;points=[];portConstraint=eastwest;strokeColor=inherit;" parent="4t4U_nMPSx-wu9e17vIo-32" vertex="1">
          <mxGeometry y="130" width="354" height="8" as="geometry" />
        </mxCell>
        <mxCell id="4t4U_nMPSx-wu9e17vIo-35" value="+ __init__(order_id: int, card_number: string, expiry_year: int, expiry_month: int, security_code: string)" style="text;strokeColor=none;fillColor=none;align=left;verticalAlign=top;spacingLeft=4;spacingRight=4;overflow=hidden;rotatable=0;points=[[0,0.5],[1,0.5]];portConstraint=eastwest;whiteSpace=wrap;html=1;" parent="4t4U_nMPSx-wu9e17vIo-32" vertex="1">
          <mxGeometry y="138" width="354" height="42" as="geometry" />
        </mxCell>
        <mxCell id="4t4U_nMPSx-wu9e17vIo-43" value="" style="endArrow=block;endSize=16;endFill=0;html=1;rounded=0;" parent="1" source="4t4U_nMPSx-wu9e17vIo-32" target="4t4U_nMPSx-wu9e17vIo-21" edge="1">
          <mxGeometry width="160" relative="1" as="geometry">
            <mxPoint x="-681" y="800" as="sourcePoint" />
            <mxPoint x="-522" y="704" as="targetPoint" />
          </mxGeometry>
        </mxCell>
        <mxCell id="4t4U_nMPSx-wu9e17vIo-44" value="匯款支付參數 (RemittancePaymentParameters)" style="swimlane;fontStyle=1;align=center;verticalAlign=top;childLayout=stackLayout;horizontal=1;startSize=40;horizontalStack=0;resizeParent=1;resizeParentMax=0;resizeLast=0;collapsible=1;marginBottom=0;whiteSpace=wrap;html=1;" parent="1" vertex="1">
          <mxGeometry x="-890" y="776" width="276" height="164" as="geometry">
            <mxRectangle x="200" y="140" width="160" height="40" as="alternateBounds" />
          </mxGeometry>
        </mxCell>
        <mxCell id="4t4U_nMPSx-wu9e17vIo-45" value="- last_five_digits: string" style="text;strokeColor=none;fillColor=none;align=left;verticalAlign=top;spacingLeft=4;spacingRight=4;overflow=hidden;rotatable=0;points=[[0,0.5],[1,0.5]];portConstraint=eastwest;whiteSpace=wrap;html=1;" parent="4t4U_nMPSx-wu9e17vIo-44" vertex="1">
          <mxGeometry y="40" width="276" height="26" as="geometry" />
        </mxCell>
        <mxCell id="4t4U_nMPSx-wu9e17vIo-46" value="- remitter: string" style="text;strokeColor=none;fillColor=none;align=left;verticalAlign=top;spacingLeft=4;spacingRight=4;overflow=hidden;rotatable=0;points=[[0,0.5],[1,0.5]];portConstraint=eastwest;whiteSpace=wrap;html=1;" parent="4t4U_nMPSx-wu9e17vIo-44" vertex="1">
          <mxGeometry y="66" width="276" height="26" as="geometry" />
        </mxCell>
        <mxCell id="4t4U_nMPSx-wu9e17vIo-47" value="- remitter_contact_info: string" style="text;strokeColor=none;fillColor=none;align=left;verticalAlign=top;spacingLeft=4;spacingRight=4;overflow=hidden;rotatable=0;points=[[0,0.5],[1,0.5]];portConstraint=eastwest;whiteSpace=wrap;html=1;" parent="4t4U_nMPSx-wu9e17vIo-44" vertex="1">
          <mxGeometry y="92" width="276" height="26" as="geometry" />
        </mxCell>
        <mxCell id="4t4U_nMPSx-wu9e17vIo-49" value="" style="line;strokeWidth=1;fillColor=none;align=left;verticalAlign=middle;spacingTop=-1;spacingLeft=3;spacingRight=3;rotatable=0;labelPosition=right;points=[];portConstraint=eastwest;strokeColor=inherit;" parent="4t4U_nMPSx-wu9e17vIo-44" vertex="1">
          <mxGeometry y="118" width="276" height="8" as="geometry" />
        </mxCell>
        <mxCell id="4t4U_nMPSx-wu9e17vIo-50" value="+ __init__(order_id: int,&amp;nbsp;last_five_digits: string, remitter: string, remitter_contact_info: string)" style="text;strokeColor=none;fillColor=none;align=left;verticalAlign=top;spacingLeft=4;spacingRight=4;overflow=hidden;rotatable=0;points=[[0,0.5],[1,0.5]];portConstraint=eastwest;whiteSpace=wrap;html=1;" parent="4t4U_nMPSx-wu9e17vIo-44" vertex="1">
          <mxGeometry y="126" width="276" height="38" as="geometry" />
        </mxCell>
        <mxCell id="4t4U_nMPSx-wu9e17vIo-51" value="" style="endArrow=block;endSize=16;endFill=0;html=1;rounded=0;" parent="1" source="4t4U_nMPSx-wu9e17vIo-44" target="4t4U_nMPSx-wu9e17vIo-21" edge="1">
          <mxGeometry width="160" relative="1" as="geometry">
            <mxPoint x="-414" y="800" as="sourcePoint" />
            <mxPoint x="-482" y="704" as="targetPoint" />
          </mxGeometry>
        </mxCell>
        <mxCell id="4t4U_nMPSx-wu9e17vIo-59" value="多元行動支付參數 (MobilePaymentParameters)" style="swimlane;fontStyle=1;align=center;verticalAlign=top;childLayout=stackLayout;horizontal=1;startSize=26;horizontalStack=0;resizeParent=1;resizeParentMax=0;resizeLast=0;collapsible=1;marginBottom=0;whiteSpace=wrap;html=1;" parent="1" vertex="1">
          <mxGeometry x="-394" y="660" width="270" height="86" as="geometry">
            <mxRectangle x="200" y="140" width="160" height="40" as="alternateBounds" />
          </mxGeometry>
        </mxCell>
        <mxCell id="4t4U_nMPSx-wu9e17vIo-60" value="- mobile_payment: IMobilePay" style="text;strokeColor=none;fillColor=none;align=left;verticalAlign=top;spacingLeft=4;spacingRight=4;overflow=hidden;rotatable=0;points=[[0,0.5],[1,0.5]];portConstraint=eastwest;whiteSpace=wrap;html=1;" parent="4t4U_nMPSx-wu9e17vIo-59" vertex="1">
          <mxGeometry y="26" width="270" height="26" as="geometry" />
        </mxCell>
        <mxCell id="4t4U_nMPSx-wu9e17vIo-63" value="" style="line;strokeWidth=1;fillColor=none;align=left;verticalAlign=middle;spacingTop=-1;spacingLeft=3;spacingRight=3;rotatable=0;labelPosition=right;points=[];portConstraint=eastwest;strokeColor=inherit;" parent="4t4U_nMPSx-wu9e17vIo-59" vertex="1">
          <mxGeometry y="52" width="270" height="8" as="geometry" />
        </mxCell>
        <mxCell id="4t4U_nMPSx-wu9e17vIo-64" value="+ __init__(order_id: int,&amp;nbsp;mobile_pay: IMobilePay)" style="text;strokeColor=none;fillColor=none;align=left;verticalAlign=top;spacingLeft=4;spacingRight=4;overflow=hidden;rotatable=0;points=[[0,0.5],[1,0.5]];portConstraint=eastwest;whiteSpace=wrap;html=1;" parent="4t4U_nMPSx-wu9e17vIo-59" vertex="1">
          <mxGeometry y="60" width="270" height="26" as="geometry" />
        </mxCell>
        <mxCell id="4t4U_nMPSx-wu9e17vIo-65" value="" style="endArrow=block;endSize=16;endFill=0;html=1;rounded=0;" parent="1" source="4t4U_nMPSx-wu9e17vIo-59" target="4t4U_nMPSx-wu9e17vIo-21" edge="1">
          <mxGeometry width="160" relative="1" as="geometry">
            <mxPoint x="-681" y="800" as="sourcePoint" />
            <mxPoint x="-522" y="704" as="targetPoint" />
          </mxGeometry>
        </mxCell>
      </root>
    </mxGraphModel>
  </diagram>
</mxfile>
